<svg width="800" height="600" viewBox="0 0 800 600" xmlns="http://www.w3.org/2000/svg">
  <defs>
    <!-- Construction industry gradients -->
    <linearGradient id="darkHeroGradient" x1="0%" y1="0%" x2="100%" y2="100%">
      <stop offset="0%" style="stop-color:#111827;stop-opacity:0.9" />
      <stop offset="50%" style="stop-color:#1f2937;stop-opacity:0.8" />
      <stop offset="100%" style="stop-color:#374151;stop-opacity:0.7" />
    </linearGradient>
    
    <linearGradient id="constructionBuildingGradient" x1="0%" y1="0%" x2="0%" y2="100%">
      <stop offset="0%" style="stop-color:#374151" />
      <stop offset="100%" style="stop-color:#1f2937" />
    </linearGradient>
    
    <linearGradient id="constructionRoofGradient" x1="0%" y1="0%" x2="0%" y2="100%">
      <stop offset="0%" style="stop-color:#4b5563" />
      <stop offset="100%" style="stop-color:#374151" />
    </linearGradient>
    
    <linearGradient id="blueAccent" x1="0%" y1="0%" x2="100%" y2="0%">
      <stop offset="0%" style="stop-color:#3b82f6" />
      <stop offset="100%" style="stop-color:#60a5fa" />
    </linearGradient>
    
    <linearGradient id="orangeAccent" x1="0%" y1="0%" x2="100%" y2="0%">
      <stop offset="0%" style="stop-color:#ea580c" />
      <stop offset="100%" style="stop-color:#f97316" />
    </linearGradient>
    
    <!-- Filters for construction glow -->
    <filter id="constructionGlow">
      <feGaussianBlur stdDeviation="4" result="coloredBlur"/>
      <feMerge> 
        <feMergeNode in="coloredBlur"/>
        <feMergeNode in="SourceGraphic"/>
      </feMerge>
    </filter>
    
    <!-- Construction blueprint pattern -->
    <pattern id="blueprintGrid" width="40" height="40" patternUnits="userSpaceOnUse">
      <path d="M 40 0 L 0 0 0 40" fill="none" stroke="#3b82f6" stroke-width="0.5" opacity="0.3"/>
    </pattern>
  </defs>
  
  <!-- Dark construction background -->
  <rect width="100%" height="100%" fill="url(#darkHeroGradient)"/>
  
  <!-- Blueprint grid overlay -->
  <rect width="100%" height="100%" fill="url(#blueprintGrid)" opacity="0.4"/>
  
  <!-- Modern construction building -->
  <g transform="translate(180, 120)">
    <!-- Main building structure -->
    <rect x="0" y="120" width="220" height="180" fill="url(#constructionBuildingGradient)" stroke="#4b5563" stroke-width="2" rx="8"/>
    
    <!-- Modern flat roof -->
    <rect x="-10" y="110" width="240" height="20" fill="url(#constructionRoofGradient)" stroke="#6b7280" stroke-width="2" rx="4"/>
    
    <!-- Construction windows with blue accent -->
    <rect x="30" y="150" width="45" height="45" fill="#1f2937" stroke="url(#blueAccent)" stroke-width="3" rx="4"/>
    <rect x="145" y="150" width="45" height="45" fill="#1f2937" stroke="url(#blueAccent)" stroke-width="3" rx="4"/>
    <rect x="30" y="220" width="45" height="45" fill="#1f2937" stroke="url(#blueAccent)" stroke-width="3" rx="4"/>
    <rect x="145" y="220" width="45" height="45" fill="#1f2937" stroke="url(#blueAccent)" stroke-width="3" rx="4"/>
    
    <!-- Modern entrance door -->
    <rect x="85" y="200" width="50" height="100" fill="#111827" stroke="url(#orangeAccent)" stroke-width="3" rx="6"/>
    <rect x="125" y="235" width="4" height="4" fill="#f97316" rx="2"/>
    
    <!-- Construction extension/garage -->
    <rect x="240" y="160" width="140" height="140" fill="url(#constructionBuildingGradient)" stroke="#4b5563" stroke-width="2" rx="8"/>
    <rect x="260" y="230" width="100" height="50" fill="#374151" stroke="url(#orangeAccent)" stroke-width="2" rx="4"/>
    
    <!-- Rooftop equipment (HVAC, etc.) -->
    <rect x="50" y="95" width="25" height="15" fill="#4b5563" stroke="#6b7280" stroke-width="1" rx="2"/>
    <rect x="145" y="95" width="25" height="15" fill="#4b5563" stroke="#6b7280" stroke-width="1" rx="2"/>
  </g>
  
  <!-- Floating construction elements with geometric shapes -->
  <g filter="url(#constructionGlow)">
    <!-- Construction squares -->
    <g transform="translate(80, 60) rotate(15)">
      <rect x="0" y="0" width="20" height="20" fill="none" stroke="url(#blueAccent)" stroke-width="3" rx="2"/>
      <rect x="5" y="5" width="10" height="10" fill="url(#blueAccent)" opacity="0.6"/>
    </g>
    
    <!-- Triangle construction elements -->
    <g transform="translate(600, 100) rotate(-25)">
      <polygon points="15,5 25,25 5,25" fill="none" stroke="url(#orangeAccent)" stroke-width="3"/>
      <polygon points="15,10 20,20 10,20" fill="url(#orangeAccent)" opacity="0.7"/>
    </g>
    
    <!-- Construction tool - Level -->
    <g transform="translate(120, 450) rotate(25)">
      <rect x="0" y="0" width="60" height="8" fill="url(#orangeAccent)" rx="4"/>
      <circle cx="30" cy="4" r="3" fill="#111827"/>
      <circle cx="30" cy="4" r="1" fill="#f97316"/>
    </g>
    
    <!-- Construction tool - Square -->
    <g transform="translate(650, 380) rotate(-35)">
      <path d="M 0 0 L 25 0 L 25 25 L 0 25 Z" fill="none" stroke="url(#blueAccent)" stroke-width="3"/>
      <path d="M 0 0 L 15 0 L 15 15 L 0 15 Z" fill="none" stroke="url(#blueAccent)" stroke-width="2"/>
    </g>
  </g>
  
  <!-- AI connection network lines -->
  <g stroke="url(#blueAccent)" stroke-width="2" fill="none" opacity="0.6">
    <path d="M100 350 Q350 280 580 350">
      <animate attributeName="stroke-dasharray" values="0,200;100,100;200,0;0,200" dur="6s" repeatCount="indefinite"/>
    </path>
    <path d="M150 480 Q400 420 650 480">
      <animate attributeName="stroke-dasharray" values="0,200;100,100;200,0;0,200" dur="7s" repeatCount="indefinite"/>
    </path>
  </g>
  
  <!-- Animated construction particles -->
  <g opacity="0.8">
    <!-- Square particles -->
    <rect x="120" y="180" width="4" height="4" fill="url(#blueAccent)">
      <animate attributeName="y" values="180;160;180" dur="4s" repeatCount="indefinite"/>
      <animate attributeName="opacity" values="0.8;0.3;0.8" dur="4s" repeatCount="indefinite"/>
    </rect>
    <rect x="580" y="220" width="3" height="3" fill="url(#orangeAccent)">
      <animate attributeName="y" values="220;200;220" dur="5s" repeatCount="indefinite"/>
      <animate attributeName="opacity" values="0.8;0.3;0.8" dur="5s" repeatCount="indefinite"/>
    </rect>
    
    <!-- Triangle particles -->
    <polygon points="680,160 685,170 675,170" fill="url(#blueAccent)">
      <animate attributeName="transform" values="translate(0,0);translate(0,-20);translate(0,0)" dur="4.5s" repeatCount="indefinite"/>
    </polygon>
  </g>
  
  <!-- Construction industry text elements -->
  <g fill="url(#blueAccent)" font-family="Arial, sans-serif" font-weight="bold" opacity="0.3">
    <text x="50" y="550" font-size="12">BLUEPRINT</text>
    <text x="650" y="550" font-size="12">BUILD</text>
  </g>
</svg>
