<svg width="800" height="600" viewBox="0 0 800 600" xmlns="http://www.w3.org/2000/svg">
  <defs>
    <!-- Gradients -->
    <linearGradient id="heroGradient" x1="0%" y1="0%" x2="100%" y2="100%">
      <stop offset="0%" style="stop-color:#3b82f6;stop-opacity:0.1" />
      <stop offset="50%" style="stop-color:#60a5fa;stop-opacity:0.2" />
      <stop offset="100%" style="stop-color:#93c5fd;stop-opacity:0.1" />
    </linearGradient>
    
    <linearGradient id="buildingGradient" x1="0%" y1="0%" x2="0%" y2="100%">
      <stop offset="0%" style="stop-color:#f8fafc" />
      <stop offset="100%" style="stop-color:#e2e8f0" />
    </linearGradient>
    
    <linearGradient id="roofGradient" x1="0%" y1="0%" x2="0%" y2="100%">
      <stop offset="0%" style="stop-color:#64748b" />
      <stop offset="100%" style="stop-color:#475569" />
    </linearGradient>
    
    <!-- Filters -->
    <filter id="glow">
      <feGaussianBlur stdDeviation="3" result="coloredBlur"/>
      <feMerge> 
        <feMergeNode in="coloredBlur"/>
        <feMergeNode in="SourceGraphic"/>
      </feMerge>
    </filter>
  </defs>
  
  <!-- Background -->
  <rect width="100%" height="100%" fill="url(#heroGradient)"/>
  
  <!-- Modern house illustration -->
  <g transform="translate(200, 150)">
    <!-- Main house structure -->
    <rect x="0" y="100" width="200" height="150" fill="url(#buildingGradient)" stroke="#cbd5e1" stroke-width="2" rx="8"/>
    
    <!-- Roof -->
    <polygon points="0,100 100,40 200,100" fill="url(#roofGradient)" stroke="#334155" stroke-width="2"/>
    
    <!-- Windows -->
    <rect x="30" y="130" width="40" height="40" fill="#dbeafe" stroke="#3b82f6" stroke-width="2" rx="4"/>
    <rect x="130" y="130" width="40" height="40" fill="#dbeafe" stroke="#3b82f6" stroke-width="2" rx="4"/>
    <rect x="30" y="190" width="40" height="40" fill="#dbeafe" stroke="#3b82f6" stroke-width="2" rx="4"/>
    <rect x="130" y="190" width="40" height="40" fill="#dbeafe" stroke="#3b82f6" stroke-width="2" rx="4"/>
    
    <!-- Door -->
    <rect x="80" y="180" width="40" height="70" fill="#1e293b" stroke="#0f172a" stroke-width="2" rx="4"/>
    <circle cx="115" cy="215" r="2" fill="#fbbf24"/>
    
    <!-- Chimney -->
    <rect x="160" y="60" width="20" height="50" fill="url(#roofGradient)" stroke="#334155" stroke-width="2"/>
    
    <!-- Extension/Garage -->
    <rect x="220" y="130" width="120" height="120" fill="url(#buildingGradient)" stroke="#cbd5e1" stroke-width="2" rx="8"/>
    <rect x="240" y="200" width="80" height="40" fill="#6b7280" stroke="#4b5563" stroke-width="2" rx="4"/>
    
    <!-- Garden elements -->
    <circle cx="-20" cy="270" r="15" fill="#10b981" opacity="0.7"/>
    <circle cx="360" cy="280" r="20" fill="#10b981" opacity="0.7"/>
    <circle cx="380" cy="260" r="12" fill="#059669" opacity="0.8"/>
  </g>
  
  <!-- Floating renovation icons -->
  <g filter="url(#glow)">
    <!-- Hammer icon -->
    <g transform="translate(100, 80) rotate(15)">
      <rect x="0" y="0" width="30" height="8" fill="#f59e0b" rx="4"/>
      <rect x="25" y="-10" width="8" height="28" fill="#92400e" rx="4"/>
    </g>
    
    <!-- Wrench icon -->
    <g transform="translate(600, 120) rotate(-20)">
      <ellipse cx="15" cy="15" rx="12" ry="5" fill="#3b82f6"/>
      <rect x="10" y="20" width="10" height="20" fill="#1d4ed8" rx="2"/>
    </g>
    
    <!-- Paint brush -->
    <g transform="translate(650, 350) rotate(45)">
      <rect x="0" y="0" width="20" height="4" fill="#dc2626" rx="2"/>
      <rect x="20" y="-2" width="15" height="8" fill="#fbbf24" rx="2"/>
    </g>
  </g>
  
  <!-- Floating particles -->
  <g opacity="0.6">
    <circle cx="150" cy="200" r="3" fill="#3b82f6">
      <animate attributeName="cy" values="200;180;200" dur="3s" repeatCount="indefinite"/>
    </circle>
    <circle cx="550" cy="250" r="2" fill="#60a5fa">
      <animate attributeName="cy" values="250;230;250" dur="4s" repeatCount="indefinite"/>
    </circle>
    <circle cx="680" cy="180" r="2.5" fill="#93c5fd">
      <animate attributeName="cy" values="180;160;180" dur="3.5s" repeatCount="indefinite"/>
    </circle>
  </g>
  
  <!-- AI connection lines -->
  <g stroke="#3b82f6" stroke-width="2" fill="none" opacity="0.4">
    <path d="M100 300 Q300 250 500 300">
      <animate attributeName="stroke-dasharray" values="0,100;50,50;100,0;0,100" dur="4s" repeatCount="indefinite"/>
    </path>
    <path d="M200 450 Q400 400 600 450">
      <animate attributeName="stroke-dasharray" values="0,100;50,50;100,0;0,100" dur="5s" repeatCount="indefinite"/>
    </path>
  </g>
</svg>
