<svg width="800" height="500" viewBox="0 0 800 500" xmlns="http://www.w3.org/2000/svg">
  <defs>
    <linearGradient id="cabinetGradient" x1="0%" y1="0%" x2="0%" y2="100%">
      <stop offset="0%" style="stop-color:#ffffff;stop-opacity:1" />
      <stop offset="100%" style="stop-color:#f8f9fa;stop-opacity:1" />
    </linearGradient>
    <linearGradient id="countertopGradient" x1="0%" y1="0%" x2="0%" y2="100%">
      <stop offset="0%" style="stop-color:#e9ecef;stop-opacity:1" />
      <stop offset="50%" style="stop-color:#dee2e6;stop-opacity:1" />
      <stop offset="100%" style="stop-color:#ced4da;stop-opacity:1" />
    </linearGradient>
    <radialGradient id="lightGradient" cx="50%" cy="30%" r="40%">
      <stop offset="0%" style="stop-color:#fff3cd;stop-opacity:0.8" />
      <stop offset="100%" style="stop-color:#fff3cd;stop-opacity:0" />
    </radialGradient>
    <filter id="shadow" x="-20%" y="-20%" width="140%" height="140%">
      <feDropShadow dx="2" dy="4" stdDeviation="3" flood-color="#000000" flood-opacity="0.1"/>
    </filter>
  </defs>
  
  <!-- Background -->
  <rect width="800" height="500" fill="#f8f9fa"/>
  
  <!-- Ambient lighting -->
  <ellipse cx="400" cy="150" rx="350" ry="200" fill="url(#lightGradient)"/>
  
  <!-- Back wall -->
  <rect x="0" y="0" width="800" height="300" fill="#ffffff"/>
  
  <!-- Upper cabinets -->
  <rect x="50" y="50" width="120" height="80" fill="url(#cabinetGradient)" stroke="#e9ecef" stroke-width="1" filter="url(#shadow)"/>
  <rect x="180" y="50" width="120" height="80" fill="url(#cabinetGradient)" stroke="#e9ecef" stroke-width="1" filter="url(#shadow)"/>
  <rect x="310" y="50" width="180" height="80" fill="url(#cabinetGradient)" stroke="#e9ecef" stroke-width="1" filter="url(#shadow)"/>
  <rect x="500" y="50" width="120" height="80" fill="url(#cabinetGradient)" stroke="#e9ecef" stroke-width="1" filter="url(#shadow)"/>
  <rect x="630" y="50" width="120" height="80" fill="url(#cabinetGradient)" stroke="#e9ecef" stroke-width="1" filter="url(#shadow)"/>
  
  <!-- Cabinet handles -->
  <rect x="150" y="85" width="15" height="3" rx="1.5" fill="#6c757d"/>
  <rect x="280" y="85" width="15" height="3" rx="1.5" fill="#6c757d"/>
  <rect x="470" y="85" width="15" height="3" rx="1.5" fill="#6c757d"/>
  <rect x="600" y="85" width="15" height="3" rx="1.5" fill="#6c757d"/>
  <rect x="730" y="85" width="15" height="3" rx="1.5" fill="#6c757d"/>
  
  <!-- Pendant lights -->
  <circle cx="300" cy="140" r="25" fill="#ffffff" stroke="#e9ecef" stroke-width="2" filter="url(#shadow)"/>
  <circle cx="500" cy="140" r="25" fill="#ffffff" stroke="#e9ecef" stroke-width="2" filter="url(#shadow)"/>
  <line x1="300" y1="50" x2="300" y2="115" stroke="#6c757d" stroke-width="2"/>
  <line x1="500" y1="50" x2="500" y2="115" stroke="#6c757d" stroke-width="2"/>
  
  <!-- Light rays -->
  <circle cx="300" cy="140" r="35" fill="#fff3cd" opacity="0.3"/>
  <circle cx="500" cy="140" r="35" fill="#fff3cd" opacity="0.3"/>
  
  <!-- Island countertop -->
  <ellipse cx="400" cy="280" rx="180" ry="40" fill="url(#countertopGradient)" filter="url(#shadow)"/>
  
  <!-- Island base -->
  <rect x="250" y="280" width="300" height="120" fill="url(#cabinetGradient)" stroke="#e9ecef" stroke-width="1" filter="url(#shadow)"/>
  
  <!-- Island cabinet doors -->
  <rect x="270" y="300" width="80" height="80" fill="#ffffff" stroke="#e9ecef" stroke-width="1"/>
  <rect x="360" y="300" width="80" height="80" fill="#ffffff" stroke="#e9ecef" stroke-width="1"/>
  <rect x="450" y="300" width="80" height="80" fill="#ffffff" stroke="#e9ecef" stroke-width="1"/>
  
  <!-- Island handles -->
  <rect x="345" y="335" width="15" height="3" rx="1.5" fill="#6c757d"/>
  <rect x="435" y="335" width="15" height="3" rx="1.5" fill="#6c757d"/>
  <rect x="525" y="335" width="15" height="3" rx="1.5" fill="#6c757d"/>
  
  <!-- Bar stools -->
  <circle cx="320" cy="250" r="15" fill="#f8f9fa" stroke="#dee2e6" stroke-width="2" filter="url(#shadow)"/>
  <circle cx="480" cy="250" r="15" fill="#f8f9fa" stroke="#dee2e6" stroke-width="2" filter="url(#shadow)"/>
  <line x1="320" y1="265" x2="320" y2="320" stroke="#6c757d" stroke-width="3"/>
  <line x1="480" y1="265" x2="480" y2="320" stroke="#6c757d" stroke-width="3"/>
  
  <!-- Base cabinets -->
  <rect x="50" y="320" width="120" height="120" fill="url(#cabinetGradient)" stroke="#e9ecef" stroke-width="1" filter="url(#shadow)"/>
  <rect x="630" y="320" width="120" height="120" fill="url(#cabinetGradient)" stroke="#e9ecef" stroke-width="1" filter="url(#shadow)"/>
  
  <!-- Appliances -->
  <rect x="580" y="320" width="40" height="120" fill="#495057" stroke="#343a40" stroke-width="1" filter="url(#shadow)"/>
  <circle cx="600" cy="350" r="3" fill="#6c757d"/>
  <rect x="590" y="370" width="20" height="2" fill="#6c757d"/>
  <rect x="590" y="380" width="20" height="2" fill="#6c757d"/>
  
  <!-- Countertop reflections -->
  <ellipse cx="400" cy="275" rx="160" ry="8" fill="#ffffff" opacity="0.4"/>
  
  <!-- Floor -->
  <rect x="0" y="440" width="800" height="60" fill="#8b7355"/>
  
  <!-- Floor planks -->
  <line x1="0" y1="450" x2="800" y2="450" stroke="#7a6249" stroke-width="1" opacity="0.5"/>
  <line x1="0" y1="460" x2="800" y2="460" stroke="#7a6249" stroke-width="1" opacity="0.5"/>
  <line x1="0" y1="470" x2="800" y2="470" stroke="#7a6249" stroke-width="1" opacity="0.5"/>
  <line x1="0" y1="480" x2="800" y2="480" stroke="#7a6249" stroke-width="1" opacity="0.5"/>
  <line x1="0" y1="490" x2="800" y2="490" stroke="#7a6249" stroke-width="1" opacity="0.5"/>
  
  <!-- Vertical floor lines -->
  <line x1="100" y1="440" x2="100" y2="500" stroke="#7a6249" stroke-width="1" opacity="0.3"/>
  <line x1="250" y1="440" x2="250" y2="500" stroke="#7a6249" stroke-width="1" opacity="0.3"/>
  <line x1="400" y1="440" x2="400" y2="500" stroke="#7a6249" stroke-width="1" opacity="0.3"/>
  <line x1="550" y1="440" x2="550" y2="500" stroke="#7a6249" stroke-width="1" opacity="0.3"/>
  <line x1="700" y1="440" x2="700" y2="500" stroke="#7a6249" stroke-width="1" opacity="0.3"/>
</svg>
