<svg width="800" height="600" viewBox="0 0 800 600" xmlns="http://www.w3.org/2000/svg">
  <defs>
    <!-- Blueprint background gradient -->
    <linearGradient id="blueprintBg" x1="0%" y1="0%" x2="100%" y2="100%">
      <stop offset="0%" style="stop-color:#f8fafc;stop-opacity:1" />
      <stop offset="50%" style="stop-color:#f1f5f9;stop-opacity:1" />
      <stop offset="100%" style="stop-color:#e2e8f0;stop-opacity:1" />
    </linearGradient>
    
    <!-- Blueprint line colors -->
    <linearGradient id="blueprintBlue" x1="0%" y1="0%" x2="100%" y2="0%">
      <stop offset="0%" style="stop-color:#3b82f6" />
      <stop offset="100%" style="stop-color:#60a5fa" />
    </linearGradient>
    
    <!-- Kitchen elements gradients -->
    <linearGradient id="cabinetGradient" x1="0%" y1="0%" x2="0%" y2="100%">
      <stop offset="0%" style="stop-color:#f8fafc" />
      <stop offset="100%" style="stop-color:#e2e8f0" />
    </linearGradient>
    
    <linearGradient id="countertopGradient" x1="0%" y1="0%" x2="0%" y2="100%">
      <stop offset="0%" style="stop-color:#cbd5e1" />
      <stop offset="100%" style="stop-color:#94a3b8" />
    </linearGradient>
    
    <!-- Blueprint grid pattern -->
    <pattern id="blueprintGrid" width="20" height="20" patternUnits="userSpaceOnUse">
      <path d="M 20 0 L 0 0 0 20" fill="none" stroke="#3b82f6" stroke-width="0.3" opacity="0.4"/>
      <circle cx="0" cy="0" r="0.5" fill="#3b82f6" opacity="0.3"/>
    </pattern>
    
    <!-- Large geometric connection pattern -->
    <pattern id="geometricConnect" width="80" height="80" patternUnits="userSpaceOnUse">
      <!-- Large connecting lines -->
      <path d="M 0 40 L 80 40" stroke="#3b82f6" stroke-width="1" opacity="0.15"/>
      <path d="M 40 0 L 40 80" stroke="#3b82f6" stroke-width="1" opacity="0.15"/>
      <!-- Connection nodes -->
      <circle cx="20" cy="20" r="2" fill="#3b82f6" opacity="0.2"/>
      <circle cx="60" cy="60" r="2" fill="#3b82f6" opacity="0.2"/>
      <circle cx="20" cy="60" r="1.5" fill="#60a5fa" opacity="0.25"/>
      <circle cx="60" cy="20" r="1.5" fill="#60a5fa" opacity="0.25"/>
    </pattern>
    
    <!-- Glow effect for modern tech elements -->
    <filter id="techGlow">
      <feGaussianBlur stdDeviation="2" result="coloredBlur"/>
      <feMerge> 
        <feMergeNode in="coloredBlur"/>
        <feMergeNode in="SourceGraphic"/>
      </feMerge>
    </filter>
  </defs>
  
  <!-- Blueprint background -->
  <rect width="100%" height="100%" fill="url(#blueprintBg)"/>
  
  <!-- Large geometric connecting pattern overlay -->
  <rect width="100%" height="100%" fill="url(#geometricConnect)" opacity="0.8"/>
  
  <!-- Blueprint grid overlay -->
  <rect width="100%" height="100%" fill="url(#blueprintGrid)" opacity="0.6"/>
  
  <!-- Kitchen Blueprint Drawing -->
  <g transform="translate(150, 100)">
    <!-- Kitchen Island (center focal point) -->
    <rect x="150" y="150" width="120" height="80" fill="none" stroke="url(#blueprintBlue)" stroke-width="2" stroke-dasharray="5,3"/>
    <rect x="155" y="155" width="110" height="70" fill="url(#countertopGradient)" opacity="0.3"/>
    <text x="205" y="195" text-anchor="middle" font-family="monospace" font-size="10" fill="#3b82f6">ISLAND</text>
    
    <!-- Upper Cabinets -->
    <rect x="50" y="50" width="300" height="40" fill="none" stroke="url(#blueprintBlue)" stroke-width="2"/>
    <rect x="55" y="55" width="290" height="30" fill="url(#cabinetGradient)" opacity="0.4"/>
    <text x="200" y="75" text-anchor="middle" font-family="monospace" font-size="8" fill="#3b82f6">UPPER CABINETS</text>
    
    <!-- Lower Cabinets -->
    <rect x="50" y="280" width="150" height="60" fill="none" stroke="url(#blueprintBlue)" stroke-width="2"/>
    <rect x="55" y="285" width="140" height="50" fill="url(#cabinetGradient)" opacity="0.4"/>
    <text x="125" y="315" text-anchor="middle" font-family="monospace" font-size="8" fill="#3b82f6">BASE CABINETS</text>
    
    <!-- Appliances -->
    <rect x="250" y="280" width="60" height="60" fill="none" stroke="url(#blueprintBlue)" stroke-width="2"/>
    <circle cx="280" cy="310" r="20" fill="none" stroke="url(#blueprintBlue)" stroke-width="1.5"/>
    <text x="280" y="355" text-anchor="middle" font-family="monospace" font-size="8" fill="#3b82f6">RANGE</text>
    
    <!-- Refrigerator -->
    <rect x="350" y="120" width="40" height="80" fill="none" stroke="url(#blueprintBlue)" stroke-width="2"/>
    <text x="370" y="210" text-anchor="middle" font-family="monospace" font-size="8" fill="#3b82f6">REF</text>
    
    <!-- Sink -->
    <ellipse cx="125" cy="245" rx="25" ry="15" fill="none" stroke="url(#blueprintBlue)" stroke-width="2"/>
    <text x="125" y="270" text-anchor="middle" font-family="monospace" font-size="8" fill="#3b82f6">SINK</text>
    
    <!-- Measurements/Dimensions -->
    <g stroke="#3b82f6" stroke-width="1" fill="none" opacity="0.6">
      <!-- Dimension lines -->
      <path d="M 50 30 L 350 30" stroke-dasharray="2,2"/>
      <path d="M 50 25 L 50 35"/>
      <path d="M 350 25 L 350 35"/>
      <text x="200" y="25" text-anchor="middle" font-family="monospace" font-size="8" fill="#3b82f6">12'-0"</text>
      
      <path d="M 30 50 L 30 340" stroke-dasharray="2,2"/>
      <path d="M 25 50 L 35 50"/>
      <path d="M 25 340 L 35 340"/>
      <text x="20" y="195" text-anchor="middle" font-family="monospace" font-size="8" fill="#3b82f6" transform="rotate(-90, 20, 195)">9'-6"</text>
    </g>
  </g>
  
  <!-- Large Floating Geometric Shapes (connecting elements) -->
  <g filter="url(#techGlow)" opacity="0.4">
    <!-- Large connecting hexagon -->
    <g transform="translate(100, 200)">
      <polygon points="30,0 50,17 50,43 30,60 10,43 10,17" fill="none" stroke="url(#blueprintBlue)" stroke-width="2"/>
      <circle cx="30" cy="30" r="3" fill="url(#blueprintBlue)" opacity="0.6">
        <animate attributeName="r" values="3;5;3" dur="3s" repeatCount="indefinite"/>
      </circle>
    </g>
    
    <!-- Large connecting square -->
    <g transform="translate(650, 150) rotate(15)">
      <rect x="0" y="0" width="40" height="40" fill="none" stroke="url(#blueprintBlue)" stroke-width="2" rx="4"/>
      <rect x="10" y="10" width="20" height="20" fill="url(#blueprintBlue)" opacity="0.3"/>
      <circle cx="20" cy="20" r="2" fill="url(#blueprintBlue)">
        <animate attributeName="opacity" values="0.8;0.3;0.8" dur="2s" repeatCount="indefinite"/>
      </circle>
    </g>
    
    <!-- Large connecting triangle -->
    <g transform="translate(600, 400)">
      <polygon points="20,0 40,35 0,35" fill="none" stroke="url(#blueprintBlue)" stroke-width="2"/>
      <polygon points="20,10 30,25 10,25" fill="url(#blueprintBlue)" opacity="0.3"/>
      <circle cx="20" cy="20" r="2" fill="url(#blueprintBlue)">
        <animate attributeName="cy" values="20;15;20" dur="4s" repeatCount="indefinite"/>
      </circle>
    </g>
    
    <!-- Connecting circles -->
    <circle cx="150" cy="400" r="20" fill="none" stroke="url(#blueprintBlue)" stroke-width="2">
      <animate attributeName="r" values="20;25;20" dur="5s" repeatCount="indefinite"/>
    </circle>
    <circle cx="150" cy="400" r="8" fill="url(#blueprintBlue)" opacity="0.4"/>
  </g>
  
  <!-- Connecting Lines Between Geometric Shapes -->
  <g stroke="url(#blueprintBlue)" stroke-width="1.5" fill="none" opacity="0.3">
    <!-- Connection network -->
    <path d="M130 230 Q400 150 650 170">
      <animate attributeName="stroke-dasharray" values="0,300;150,150;300,0;0,300" dur="8s" repeatCount="indefinite"/>
    </path>
    <path d="M670 190 Q500 300 170 420">
      <animate attributeName="stroke-dasharray" values="0,300;150,150;300,0;0,300" dur="10s" repeatCount="indefinite"/>
    </path>
    <path d="M620 420 Q400 350 130 250">
      <animate attributeName="stroke-dasharray" values="0,300;150,150;300,0;0,300" dur="9s" repeatCount="indefinite"/>
    </path>
  </g>
  
  <!-- Blueprint technical elements -->
  <g fill="#3b82f6" font-family="monospace" font-size="10" opacity="0.5">
    <!-- Title block -->
    <rect x="600" y="500" width="180" height="80" fill="none" stroke="#3b82f6" stroke-width="1"/>
    <text x="610" y="515">REMODELY AI PLATFORM</text>
    <text x="610" y="530" font-size="8">KITCHEN DESIGN BLUEPRINT</text>
    <text x="610" y="545" font-size="8">SCALE: 1/4" = 1'-0"</text>
    <text x="610" y="560" font-size="8">DATE: 08/01/2025</text>
    <text x="610" y="575" font-size="8">REV: 01</text>
    
    <!-- North arrow -->
    <g transform="translate(50, 500)">
      <polygon points="10,0 15,20 10,15 5,20" fill="#3b82f6"/>
      <text x="10" y="35" text-anchor="middle" font-size="8">N</text>
    </g>
  </g>
  
  <!-- AI Technology indicators -->
  <g opacity="0.6">
    <circle cx="720" cy="100" r="15" fill="none" stroke="url(#blueprintBlue)" stroke-width="2">
      <animate attributeName="r" values="15;20;15" dur="3s" repeatCount="indefinite"/>
    </circle>
    <text x="720" y="105" text-anchor="middle" font-family="monospace" font-size="8" fill="#3b82f6">AI</text>
    
    <circle cx="80" cy="80" r="12" fill="none" stroke="url(#blueprintBlue)" stroke-width="2">
      <animate attributeName="r" values="12;16;12" dur="4s" repeatCount="indefinite"/>
    </circle>
    <text x="80" y="85" text-anchor="middle" font-family="monospace" font-size="7" fill="#3b82f6">TECH</text>
  </g>
</svg>
