<svg width="48" height="48" viewBox="0 0 48 48" fill="none" xmlns="http://www.w3.org/2000/svg">
  <defs>
    <linearGradient id="globeBackground" x1="0%" y1="0%" x2="100%" y2="100%">
      <stop offset="0%" stopColor="#1e40af" />
      <stop offset="30%" stopColor="#3b82f6" />
      <stop offset="70%" stopColor="#60a5fa" />
      <stop offset="100%" stopColor="#93c5fd" />
    </linearGradient>
    <filter id="logoShadow" x="-50%" y="-50%" width="200%" height="200%">
      <feDropShadow dx="2" dy="2" stdDeviation="3" floodColor="#000" floodOpacity="0.3"/>
    </filter>
  </defs>
  
  <!-- Blue gradient circle background -->
  <circle cx="24" cy="24" r="22" fill="url(#globeBackground)" filter="url(#logoShadow)" opacity="0.9"/>
  
  <!-- White globe icon -->
  <g transform="translate(12, 12)">
    <svg width="24" height="24" fill="white" viewBox="0 0 24 24">
      <path d="M12 2C6.48 2 2 6.48 2 12s4.48 10 10 10 10-4.48 10-10S17.52 2 12 2zm-1 17.93c-3.94-.49-7-3.85-7-7.93 0-.62.08-1.21.21-1.79L9 15v1c0 1.1.9 2 2 2v1.93zm6.9-2.54c-.26-.81-1-1.39-1.9-1.39h-1v-3c0-.55-.45-1-1-1H8v-2h2c.55 0 1-.45 1-1V7h2c1.1 0 2-.9 2-2v-.41c2.93 1.19 5 4.06 5 7.41 0 2.08-.8 3.97-2.1 5.39z"/>
    </svg>
  </g>
</svg>
  </g>
  
  <!-- Company Name -->
  <text x="48" y="25" font-family="system-ui, -apple-system, sans-serif" font-size="18" font-weight="700" fill="#1e293b">
    New
  </text>
  <text x="48" y="42" font-family="system-ui, -apple-system, sans-serif" font-size="18" font-weight="700" fill="#334155">
    Countertops
  </text>
  <text x="168" y="30" font-family="system-ui, -apple-system, sans-serif" font-size="12" font-weight="600" fill="url(#connectionGradient)">
    .com
  </text>
  
  <!-- Decorative connection elements -->
  <circle cx="45" cy="48" r="1" fill="url(#connectionGradient)" opacity="0.4"/>
  <circle cx="155" cy="15" r="0.8" fill="url(#connectionGradient)" opacity="0.3"/>
  <path d="M45 47 L155 16" stroke="url(#connectionGradient)" stroke-width="0.5" opacity="0.2"/>
</svg>
